<svg width="18" height="18" viewBox="0 0 18 18" fill="none" xmlns="http://www.w3.org/2000/svg">
<path fill-rule="evenodd" clip-rule="evenodd" d="M18 9C18 11.3869 17.0518 13.6761 15.364 15.364C13.6761 17.0518 11.3869 18 9 18C6.61305 18 4.32387 17.0518 2.63604 15.364C0.948212 13.6761 0 11.3869 0 9C0 6.61305 0.948212 4.32387 2.63604 2.63604C4.32387 0.948212 6.61305 0 9 0C11.3869 0 13.6761 0.948212 15.364 2.63604C17.0518 4.32387 18 6.61305 18 9ZM9 3.375C9.22378 3.375 9.43839 3.46389 9.59662 3.62213C9.75486 3.78036 9.84375 3.99497 9.84375 4.21875V9.28125C9.84375 9.50503 9.75486 9.71964 9.59662 9.87787C9.43839 10.0361 9.22378 10.125 9 10.125C8.77622 10.125 8.56161 10.0361 8.40338 9.87787C8.24514 9.71964 8.15625 9.50503 8.15625 9.28125V4.21875C8.15625 3.99497 8.24514 3.78036 8.40338 3.62213C8.56161 3.46389 8.77622 3.375 9 3.375ZM9 14.625C9.29837 14.625 9.58452 14.5065 9.7955 14.2955C10.0065 14.0845 10.125 13.7984 10.125 13.5C10.125 13.2016 10.0065 12.9155 9.7955 12.7045C9.58452 12.4935 9.29837 12.375 9 12.375C8.70163 12.375 8.41548 12.4935 8.2045 12.7045C7.99353 12.9155 7.875 13.2016 7.875 13.5C7.875 13.7984 7.99353 14.0845 8.2045 14.2955C8.41548 14.5065 8.70163 14.625 9 14.625Z" fill="#EF4444"/>
</svg>
