<svg
    width="18"
    height="12"
    viewBox="0 0 18 12"
    fill="none"
    xmlns="http://www.w3.org/2000/svg"
  >
    <path
      d="M9.00014 8.14286C9.63188 8.14286 10.2377 7.91709 10.6844 7.51523C11.1311 7.11337 11.3821 6.56832 11.3821 6C11.3821 5.43168 11.1311 4.88663 10.6844 4.48477C10.2377 4.08291 9.63188 3.85714 9.00014 3.85714C8.36841 3.85714 7.76255 4.08291 7.31585 4.48477C6.86914 4.88663 6.61819 5.43168 6.61819 6C6.61819 6.56832 6.86914 7.11337 7.31585 7.51523C7.76255 7.91709 8.36841 8.14286 9.00014 8.14286Z"
      fill="#CBD5E1"
    />
    <path
      fill-rule="evenodd"
      clip-rule="evenodd"
      d="M0.10497 6.50571C-0.0349899 6.17855 -0.0349899 5.8163 0.10497 5.48914C0.797861 3.87299 2.01859 2.48352 3.6064 1.50369C5.19422 0.523862 7.07467 -0.000378913 9.00014 2.05481e-07C13.0561 2.05481e-07 16.5204 2.28 17.8953 5.49429C18.0354 5.82086 18.0344 6.18343 17.8953 6.51086C17.2024 8.12701 15.9817 9.51648 14.3939 10.4963C12.8061 11.4761 10.9256 12.0004 9.00014 12C4.94415 12 1.47983 9.72 0.10497 6.50571ZM12.8113 6C12.8113 6.90931 12.4097 7.78138 11.695 8.42437C10.9803 9.06735 10.0109 9.42857 9.00014 9.42857C7.98937 9.42857 7.01999 9.06735 6.30527 8.42437C5.59054 7.78138 5.18901 6.90931 5.18901 6C5.18901 5.09069 5.59054 4.21862 6.30527 3.57563C7.01999 2.93265 7.98937 2.57143 9.00014 2.57143C10.0109 2.57143 10.9803 2.93265 11.695 3.57563C12.4097 4.21862 12.8113 5.09069 12.8113 6Z"
      fill="#CBD5E1"
    />
  </svg>