<svg width="18" height="14" viewBox="0 0 18 14" fill="none" xmlns="http://www.w3.org/2000/svg">
<path fill-rule="evenodd" clip-rule="evenodd" d="M2.59757 0.17613C2.4621 0.0602103 2.28293 -0.00289745 2.09779 0.000102241C1.91266 0.00310193 1.73602 0.0719749 1.60508 0.192211C1.47415 0.312448 1.39915 0.47466 1.39589 0.644673C1.39262 0.814687 1.46134 0.979227 1.58757 1.10363L15.4036 13.7911C15.469 13.8556 15.5479 13.9073 15.6355 13.9432C15.7232 13.9791 15.8178 13.9983 15.9138 13.9999C16.0097 14.0015 16.105 13.9852 16.194 13.9522C16.283 13.9192 16.3638 13.8701 16.4317 13.8078C16.4996 13.7455 16.5531 13.6712 16.589 13.5895C16.6249 13.5078 16.6426 13.4203 16.6409 13.3322C16.6392 13.2441 16.6182 13.1572 16.5791 13.0767C16.5401 12.9962 16.4838 12.9237 16.4136 12.8636L14.7509 11.3368C16.1664 10.3523 17.2552 9.02521 17.8952 7.50426C18.0349 7.17054 18.0349 6.8011 17.8952 6.46738C17.2032 4.81658 15.9828 3.39704 14.3948 2.39581C12.8069 1.39459 10.9258 0.858652 8.99961 0.85863C7.42171 0.856233 5.86807 1.21532 4.4794 1.90338L2.59757 0.17613ZM6.85861 4.08738L7.8991 5.04288C8.34861 4.82712 8.86138 4.74876 9.36276 4.8192C9.86414 4.88964 10.3279 5.10521 10.6866 5.43451C11.0454 5.76382 11.2802 6.18968 11.3571 6.65008C11.4339 7.11048 11.3488 7.5814 11.1139 7.99426L12.1535 8.94976C12.6523 8.27612 12.8797 7.46377 12.7964 6.65271C12.713 5.84165 12.3242 5.0827 11.6969 4.50665C11.0696 3.9306 10.2432 3.57354 9.35997 3.497C8.47677 3.42047 7.59217 3.62926 6.85861 4.08738Z" fill="#CBD5E1"/>
<path d="M9.71328 10.4224L12.1173 12.63C11.115 12.9478 10.0619 13.1096 9.00152 13.1086C4.94438 13.1086 1.4799 10.7811 0.104975 7.49988C-0.0349915 7.1659 -0.0349915 6.79611 0.104975 6.46213C0.570399 5.35649 1.27544 4.34914 2.17737 3.50113L5.25596 6.32913C5.13962 6.88984 5.17438 7.46818 5.35721 8.01373C5.54004 8.55928 5.86539 9.05549 6.30491 9.45911C6.74442 9.86273 7.28477 10.1615 7.87884 10.3294C8.47292 10.4973 9.1027 10.5292 9.71328 10.4224Z" fill="#CBD5E1"/>
</svg>
