<svg
    width="24"
    height="24"
    viewBox="0 0 24 24"
    fill="none"
    xmlns="http://www.w3.org/2000/svg"
  >
    <path
      d="M24.0002 12.2667C24.0002 11.28 23.9185 10.56 23.7417 9.81335H12.2451V14.2666H18.9933C18.8573 15.3733 18.1226 17.04 16.49 18.1599L16.4671 18.309L20.1021 21.0687L20.3539 21.0934C22.6668 19 24.0002 15.92 24.0002 12.2667Z"
      fill="#4285F4"
    />
    <path
      d="M12.2449 23.9999C15.551 23.9999 18.3264 22.9332 20.3537 21.0933L16.4898 18.1599C15.4558 18.8666 14.068 19.3599 12.2449 19.3599C9.00685 19.3599 6.25858 17.2666 5.2789 14.3733L5.1353 14.3852L1.35558 17.2519L1.30615 17.3866C3.31973 21.3065 7.45577 23.9999 12.2449 23.9999Z"
      fill="#34A853"
    />
    <path
      d="M5.27884 14.3734C5.02034 13.6267 4.87074 12.8266 4.87074 12C4.87074 11.1733 5.02034 10.3733 5.26524 9.62667L5.25839 9.46765L1.4313 6.55493L1.30609 6.6133C0.476194 8.23999 0 10.0667 0 12C0 13.9333 0.476194 15.76 1.30609 17.3866L5.27884 14.3734Z"
      fill="#FBBC05"
    />
    <path
      d="M12.2449 4.63997C14.5442 4.63997 16.0952 5.6133 16.9796 6.42668L20.4353 3.12C18.3129 1.18667 15.551 0 12.2449 0C7.45577 0 3.31973 2.69331 1.30615 6.61328L5.2653 9.62665C6.25858 6.73333 9.00685 4.63997 12.2449 4.63997Z"
      fill="#EB4335"
    />
  </svg>