<svg aria-hidden="true" xmlns="http://www.w3.org/2000/svg" viewBox="0 0 116 29" width="120" height="30"><path fill="#636C8B" d="M32.92 25.524c0-.573.254-1.01.763-1.312.516-.308 1.333-.523 2.451-.645 0-.165-.018-.326-.054-.483a1.039 1.039 0 0 0-.172-.42.844.844 0 0 0-.322-.29 1.043 1.043 0 0 0-.527-.118c-.308 0-.595.057-.86.172a4.32 4.32 0 0 0-.7.387l-.354-.613c.244-.158.541-.308.892-.452.352-.15.739-.225 1.162-.225.638 0 1.1.197 1.387.59.286.388.43.908.43 1.56v3.204h-.731l-.076-.624h-.021a4.525 4.525 0 0 1-.817.538 2.016 2.016 0 0 1-.914.215c-.445 0-.814-.13-1.108-.387-.286-.258-.43-.624-.43-1.097Zm.87-.064c0 .3.086.516.258.645.18.129.398.193.656.193.25 0 .487-.057.71-.172.229-.122.47-.297.72-.527v-1.451a9.181 9.181 0 0 0-1.107.204 3.002 3.002 0 0 0-.732.28 1.03 1.03 0 0 0-.387.376.884.884 0 0 0-.118.452Zm9.342 1.548a3.65 3.65 0 0 1-1.376-.269 3.592 3.592 0 0 1-1.162-.763l.732-.85c.25.237.537.43.86.58.322.144.645.216.967.216.402 0 .706-.082.914-.247a.796.796 0 0 0 .312-.656c0-.294-.104-.505-.312-.634a5.441 5.441 0 0 0-.774-.398l-.968-.42a3.774 3.774 0 0 1-.677-.387 1.98 1.98 0 0 1-.537-.602c-.137-.244-.205-.537-.205-.881 0-.373.1-.706.301-1a2.14 2.14 0 0 1 .839-.71c.358-.18.767-.269 1.226-.269.408 0 .802.083 1.182.248.38.157.706.372.979.645l-.635.795a2.848 2.848 0 0 0-.71-.44 2.004 2.004 0 0 0-.816-.162c-.33 0-.599.076-.807.226a.698.698 0 0 0-.3.602c0 .18.05.33.15.452.107.114.247.215.42.3.171.08.354.158.547.237l.957.398c.416.18.757.416 1.022.71.265.286.397.684.397 1.193 0 .38-.1.728-.3 1.043-.201.315-.491.57-.871.763-.373.187-.825.28-1.355.28Zm6.009 0c-.48 0-.914-.108-1.3-.323a2.47 2.47 0 0 1-.915-.946c-.222-.416-.333-.914-.333-1.494 0-.588.122-1.086.366-1.495.243-.416.566-.73.967-.946a2.704 2.704 0 0 1 1.312-.333c.337 0 .63.057.882.172.25.114.473.254.666.42l-.602.806a1.645 1.645 0 0 0-.42-.28 1.02 1.02 0 0 0-.462-.108c-.422 0-.77.162-1.042.484-.266.323-.398.75-.398 1.28 0 .523.129.946.387 1.268a1.26 1.26 0 0 0 1.021.484c.208 0 .402-.043.58-.129.187-.093.356-.2.506-.322l.505.817a2.493 2.493 0 0 1-.817.484 2.67 2.67 0 0 1-.903.16Zm2.869-.129v-5.28h1.022l.086.936h.043c.187-.344.413-.605.678-.785.265-.186.537-.28.817-.28.25 0 .451.037.602.108l-.215 1.076a1.65 1.65 0 0 0-.548-.086c-.208 0-.427.082-.656.247-.23.157-.427.437-.592.838v3.226h-1.236Zm4.12 0v-5.28h1.236v5.28h-1.237Zm.623-6.204a.75.75 0 0 1-.538-.193.678.678 0 0 1-.204-.516c0-.208.068-.377.204-.506a.75.75 0 0 1 .538-.193c.222 0 .401.064.537.193a.664.664 0 0 1 .205.506.678.678 0 0 1-.205.516.75.75 0 0 1-.537.193Zm4.857 6.333c-.502 0-.982-.23-1.441-.688h-.032l-.108.559h-.978v-7.59h1.236v1.956l-.032.882a3.04 3.04 0 0 1 .731-.473 1.89 1.89 0 0 1 .796-.183c.659 0 1.172.244 1.537.73.366.488.548 1.137.548 1.947 0 .602-.107 1.118-.322 1.548-.215.423-.495.75-.839.979a1.953 1.953 0 0 1-1.097.333Zm-.258-1.021c.35 0 .645-.155.881-.463.237-.308.355-.76.355-1.355 0-.53-.09-.942-.269-1.236-.179-.294-.47-.44-.87-.44-.373 0-.76.196-1.162.59v2.463c.187.157.37.272.548.344.187.064.359.096.517.096Zm5.714 1.021c-.66 0-1.187-.244-1.58-.731-.395-.488-.592-1.165-.592-2.032 0-.574.104-1.068.312-1.484.215-.416.494-.735.838-.957a1.97 1.97 0 0 1 1.086-.333c.301 0 .556.054.764.161.215.1.422.24.623.42l-.043-.85v-1.914h1.237v7.59h-1.022l-.086-.569h-.043c-.193.194-.42.358-.677.495-.258.136-.53.204-.817.204Zm.3-1.021c.395 0 .764-.198 1.108-.592v-2.462a1.617 1.617 0 0 0-.537-.344 1.576 1.576 0 0 0-.538-.097c-.337 0-.627.154-.87.462-.237.302-.356.728-.356 1.28 0 .566.104 1 .312 1.3.208.302.502.453.882.453Zm6.017-1.71c0-.437.068-.824.205-1.161.136-.344.319-.635.548-.871a2.3 2.3 0 0 1 .796-.538 2.6 2.6 0 0 1 .967-.182c.344 0 .638.064.882.193.25.122.466.265.645.43l-.44.57a2.397 2.397 0 0 0-.495-.333 1.191 1.191 0 0 0-.56-.13c-.236 0-.455.05-.655.151-.201.093-.373.23-.516.409a2.109 2.109 0 0 0-.345.645 2.648 2.648 0 0 0-.118.817c0 .301.04.573.118.817.08.244.187.455.323.634.143.172.315.309.516.409.2.093.42.14.656.14.25 0 .477-.05.677-.15.208-.108.391-.234.549-.377l.398.58a2.852 2.852 0 0 1-.796.495 2.286 2.286 0 0 1-.903.183c-.344 0-.667-.061-.968-.183a2.262 2.262 0 0 1-.785-.527 2.697 2.697 0 0 1-.516-.86 3.464 3.464 0 0 1-.183-1.161Zm4.78 0c0-.437.065-.824.194-1.161.136-.344.315-.635.537-.871a2.245 2.245 0 0 1 1.688-.72 2.313 2.313 0 0 1 1.688.72c.223.236.398.527.527.87.136.338.204.725.204 1.162 0 .43-.068.817-.204 1.161a2.595 2.595 0 0 1-.527.86c-.222.23-.48.405-.774.527a2.313 2.313 0 0 1-.914.183c-.322 0-.63-.061-.924-.183a2.317 2.317 0 0 1-.764-.527 2.742 2.742 0 0 1-.537-.86 3.288 3.288 0 0 1-.194-1.161Zm.914 0c0 .301.036.573.108.817.071.244.172.455.3.634.137.172.298.309.484.409.187.093.391.14.613.14.223 0 .427-.047.613-.14.187-.1.344-.237.473-.409.136-.179.24-.39.312-.634a2.88 2.88 0 0 0 .108-.817c0-.301-.036-.574-.108-.817a1.932 1.932 0 0 0-.312-.645 1.288 1.288 0 0 0-.473-.409c-.186-.1-.39-.15-.613-.15-.222 0-.426.05-.613.15-.186.093-.347.23-.483.409-.13.179-.23.394-.301.645a2.891 2.891 0 0 0-.108.817Zm5.408-2.623h.731l.075.752h.033c.229-.25.476-.459.742-.623a1.62 1.62 0 0 1 .881-.258c.401 0 .713.09.935.268.23.172.398.416.506.731.272-.3.545-.54.817-.72a1.6 1.6 0 0 1 .903-.28c.538 0 .935.173 1.194.517.265.344.397.853.397 1.526v3.312h-.881v-3.193c0-.495-.08-.85-.237-1.065-.157-.222-.401-.333-.73-.333-.395 0-.832.269-1.313.806v3.785h-.881v-3.193c0-.495-.08-.85-.237-1.065-.157-.222-.405-.333-.742-.333-.394 0-.831.269-1.311.806v3.785h-.882v-5.225Zm9.903 5.666v1.763h-.881v-7.43h.73l.076.603h.032c.237-.201.495-.373.774-.516.287-.144.585-.215.893-.215.337 0 .634.064.892.193.258.122.473.301.645.538.172.229.301.509.387.838.093.323.14.688.14 1.097 0 .444-.06.842-.183 1.193a2.763 2.763 0 0 1-.494.882c-.208.244-.448.43-.72.56-.273.12-.56.182-.86.182a1.81 1.81 0 0 1-.732-.161 3.75 3.75 0 0 1-.72-.441l.021.914Zm0-1.602c.237.2.466.344.688.43a1.8 1.8 0 0 0 .592.118c.215 0 .412-.047.591-.14.186-.1.344-.236.473-.408.136-.18.24-.398.312-.656.079-.258.118-.549.118-.871 0-.287-.025-.548-.075-.785a1.637 1.637 0 0 0-.247-.602 1.094 1.094 0 0 0-.43-.398 1.293 1.293 0 0 0-.624-.14c-.222 0-.448.061-.677.183a4.028 4.028 0 0 0-.72.527v2.742Zm4.785-.194c0-.573.254-1.01.763-1.312.516-.308 1.333-.523 2.452-.645 0-.165-.018-.326-.054-.483a1.044 1.044 0 0 0-.172-.42.84.84 0 0 0-.323-.29 1.04 1.04 0 0 0-.527-.118c-.308 0-.594.057-.86.172-.258.114-.49.243-.698.387l-.355-.613a5.43 5.43 0 0 1 .892-.452c.351-.15.738-.225 1.161-.225.638 0 1.1.197 1.387.59.287.388.43.908.43 1.56v3.204h-.731l-.075-.624h-.022c-.25.208-.523.387-.817.538a2.013 2.013 0 0 1-.914.215c-.444 0-.813-.13-1.107-.387-.287-.258-.43-.624-.43-1.097Zm.871-.064c0 .3.086.516.258.645.179.129.398.193.656.193.251 0 .487-.057.709-.172.23-.122.47-.297.721-.527v-1.451a9.16 9.16 0 0 0-1.108.204 2.994 2.994 0 0 0-.731.28 1.031 1.031 0 0 0-.387.376.883.883 0 0 0-.118.452Zm4.996-3.806h.731l.076.752h.032c.251-.25.512-.459.785-.623.279-.172.602-.258.967-.258.552 0 .954.172 1.205.516.258.344.387.853.387 1.526v3.312h-.882v-3.193c0-.495-.079-.85-.237-1.065-.157-.222-.408-.333-.752-.333-.273 0-.513.068-.721.204a4.706 4.706 0 0 0-.709.602v3.785h-.882v-5.225Zm5.633 6.666c.057.014.122.028.193.043a.922.922 0 0 0 .936-.29c.193-.209.344-.474.451-.796l.118-.387-2.096-5.236h.914l1.064 2.892.248.73c.093.252.179.499.258.743h.043c.078-.237.154-.484.225-.742.072-.258.144-.502.215-.731l.936-2.892h.86l-1.968 5.655a6.135 6.135 0 0 1-.311.72 2.272 2.272 0 0 1-.409.57 1.773 1.773 0 0 1-.538.387c-.2.093-.433.14-.698.14-.122 0-.233-.01-.334-.032a1.15 1.15 0 0 1-.279-.076l.172-.698Z"/><path fill="#026C97" d="M40.105 11.483c0-.585-.154-1.033-.43-1.36a3.115 3.115 0 0 0-1.083-.773 6.953 6.953 0 0 0-1.394-.448c-.516-.103-.98-.206-1.41-.344-.43-.137-.792-.292-1.067-.499-.292-.206-.43-.499-.43-.911 0-.241.052-.448.172-.62.103-.172.258-.327.465-.447.206-.12.43-.206.688-.275.258-.052.533-.086.825-.086.516 0 .98.12 1.394.327.413.206.688.516.825.911.07.241.155.379.224.448.069.068.155.086.275.086a.5.5 0 0 0 .241-.052.406.406 0 0 0 .155-.138c.034-.051.051-.103.069-.154 0-.035.017-.07.017-.104 0-.034-.035-.154-.086-.395-.069-.241-.206-.482-.413-.757-.224-.258-.55-.499-.98-.705-.448-.207-1.033-.327-1.772-.327-.706 0-1.256.103-1.669.31-.413.206-.74.464-.946.739-.224.275-.361.55-.43.826a2.576 2.576 0 0 0-.086.62c0 .378.069.704.24.98.173.275.362.498.585.653.173.138.345.241.534.31.172.086.395.172.636.24.241.07.516.156.843.224.327.086.723.19 1.17.31.138.035.292.086.499.155.206.069.395.155.585.275.172.12.327.275.464.447.138.19.207.413.207.688 0 .207-.052.413-.155.62a1.598 1.598 0 0 1-.43.533 2.249 2.249 0 0 1-.757.396c-.31.103-.671.137-1.084.137-.155 0-.344 0-.568-.034a1.972 1.972 0 0 1-.67-.19 2.083 2.083 0 0 1-.671-.447 2.242 2.242 0 0 1-.55-.825c-.07-.138-.121-.275-.19-.396a.4.4 0 0 0-.344-.172.555.555 0 0 0-.361.138.433.433 0 0 0-.155.344c0 .258.086.55.258.86.172.31.395.585.67.825.104.104.224.19.362.276.138.103.31.172.516.24.206.07.43.138.705.173.258.051.568.069.93.069.79 0 1.41-.104 1.892-.31.481-.207.843-.465 1.083-.757.241-.293.413-.585.482-.895.069-.31.12-.55.12-.74Zm3.308 1.84V2.331c0-.103-.018-.207-.018-.31a.713.713 0 0 0-.051-.275.47.47 0 0 0-.155-.206.511.511 0 0 0-.31-.086.455.455 0 0 0-.292.086.47.47 0 0 0-.155.206c-.034.086-.069.172-.069.275v11.612c0 .103.035.19.07.275a.47.47 0 0 0 .154.207c.069.051.172.069.31.069.24 0 .395-.087.447-.276.034-.189.069-.378.069-.585Zm3.87 0V5.737c0-.086-.017-.19-.017-.292a.656.656 0 0 0-.206-.499.492.492 0 0 0-.293-.086.511.511 0 0 0-.31.086.47.47 0 0 0-.154.206c-.035.086-.07.172-.07.275v8.206c0 .103.035.19.07.275a.47.47 0 0 0 .154.207c.07.051.172.069.31.069.24 0 .396-.087.447-.276a3.2 3.2 0 0 0 .07-.585Zm.155-10.854a.651.651 0 0 0-.206-.482.697.697 0 0 0-.465-.19.647.647 0 0 0-.67.672c0 .189.05.344.188.481.12.138.276.19.482.19a.623.623 0 0 0 .465-.19.651.651 0 0 0 .206-.481Zm9.444-.155V6.51c-.103-.137-.24-.292-.395-.482a3.41 3.41 0 0 0-.637-.55 3.722 3.722 0 0 0-.946-.43 4.428 4.428 0 0 0-1.342-.19c-.774 0-1.41.156-1.927.448a3.65 3.65 0 0 0-1.221 1.118c-.31.447-.533.946-.654 1.48a6.337 6.337 0 0 0-.189 1.548c0 .516.052 1.066.19 1.617.137.55.36 1.066.67 1.53.31.465.706.844 1.222 1.136.516.31 1.135.447 1.892.447.482 0 .894-.051 1.256-.154.36-.104.67-.241.946-.413.275-.172.499-.344.67-.516.173-.172.328-.344.465-.482v.705c0 .104 0 .207.017.31 0 .103.035.19.07.275a.47.47 0 0 0 .154.207c.069.051.155.069.292.069.241 0 .396-.087.448-.276a3.2 3.2 0 0 0 .069-.585V2.313c0-.085-.018-.189-.018-.292a.713.713 0 0 0-.051-.275.47.47 0 0 0-.155-.206.492.492 0 0 0-.293-.086.51.51 0 0 0-.31.086.47.47 0 0 0-.154.206c-.034.086-.069.172-.069.275v.293Zm-6.21 7.19c0-.619.069-1.152.24-1.634.156-.464.362-.86.637-1.187.276-.31.585-.55.947-.722.36-.155.74-.241 1.152-.241.31 0 .671.069 1.05.172.378.12.722.327 1.049.602.31.292.585.688.808 1.17.207.481.327 1.1.327 1.823 0 .482-.034.877-.103 1.204-.069.344-.138.62-.24.86-.104.241-.207.43-.328.585-.137.155-.258.293-.361.396-.206.19-.396.327-.602.43a3.263 3.263 0 0 1-1.135.344c-.172.017-.293.017-.396.017-.379 0-.757-.069-1.118-.223a2.65 2.65 0 0 1-.98-.706c-.293-.31-.517-.705-.689-1.187-.172-.481-.258-1.049-.258-1.703Zm10.657.138h6.21a.7.7 0 0 0 .31-.086c.085-.034.154-.12.206-.224a.948.948 0 0 0 .086-.43c0-.017-.017-.137-.017-.344a6.23 6.23 0 0 0-.138-.774 5.475 5.475 0 0 0-.344-.963 3.956 3.956 0 0 0-.67-.946 4.25 4.25 0 0 0-1.085-.723c-.447-.19-.98-.292-1.6-.292-.653 0-1.238.12-1.737.344a3.343 3.343 0 0 0-1.273.946c-.344.413-.62.894-.791 1.462a6.744 6.744 0 0 0-.258 1.91c0 .653.069 1.273.24 1.84.155.568.396 1.067.74 1.48.344.412.757.74 1.273.98.516.241 1.118.362 1.807.362.722 0 1.324-.121 1.806-.379.482-.24.86-.533 1.135-.843.275-.31.465-.62.568-.912.103-.292.172-.481.172-.55a.541.541 0 0 0-.138-.327.506.506 0 0 0-.378-.155c-.241 0-.413.138-.499.379-.19.464-.413.825-.654 1.083-.24.258-.499.448-.74.568a2.23 2.23 0 0 1-.722.24c-.224.035-.396.035-.516.035-.499 0-.929-.086-1.307-.275a2.35 2.35 0 0 1-.93-.757 3.502 3.502 0 0 1-.55-1.17 4.96 4.96 0 0 1-.206-1.479Zm5.711-.86h-5.694c.034-.258.103-.568.206-.93a3.07 3.07 0 0 1 .517-.997c.223-.31.515-.585.877-.808.344-.207.791-.327 1.307-.327.62 0 1.118.137 1.48.378.36.258.636.55.825.878.19.344.31.67.362 1.015.051.344.086.619.12.79Zm4.919-1.533c0-.286.142-.512.428-.672a2.16 2.16 0 0 1 1.016-.235c.714 0 1.252.26 1.605.764.353.512.756.764 1.2.764.295 0 .53-.084.698-.26a.913.913 0 0 0 .252-.655c0-.487-.336-.958-.991-1.411-.664-.454-1.554-.68-2.663-.68-1.218 0-2.133.268-2.738.806-.605.537-.907 1.159-.907 1.856 0 .622.243 1.16.747 1.613.496.453 1.285.798 2.378 1.05 1.091.252 1.755.479 1.999.688.243.21.37.454.37.74 0 .319-.152.58-.438.78-.285.203-.663.303-1.117.303-.42 0-.806-.075-1.167-.235-.37-.16-.698-.487-1-.983-.269-.445-.588-.672-.94-.672a.899.899 0 0 0-.664.27.87.87 0 0 0-.269.646c0 .588.32 1.15.966 1.671.647.53 1.613.79 2.89.79 1.26 0 2.234-.252 2.94-.773.697-.512 1.05-1.251 1.05-2.226 0-1.226-1.042-2.091-3.117-2.595-1.075-.26-1.764-.479-2.066-.647-.311-.168-.462-.395-.462-.697ZM87.774 8.4c0-1.218-.286-2.109-.849-2.68-.571-.571-1.31-.857-2.234-.857-1.1 0-2.033.462-2.797 1.386V3.536c0-.57-.034-.983-.084-1.235a1.037 1.037 0 0 0-.37-.613 1.147 1.147 0 0 0-.722-.235c-.26 0-.487.076-.672.21a.872.872 0 0 0-.37.53c-.05.218-.075.596-.075 1.15v9.105c0 .706.1 1.176.302 1.403.202.227.479.336.832.336.36 0 .646-.11.848-.344.202-.236.31-.706.31-1.428V9.76c0-.882.068-1.503.202-1.856a2.01 2.01 0 0 1 .68-.89 1.89 1.89 0 0 1 1.143-.361c.487 0 .874.168 1.15.487.278.319.42.915.42 1.78v3.663c0 .621.093 1.041.295 1.268.193.227.47.336.823.336.773 0 1.168-.53 1.168-1.604V8.4Zm8.179 4.493c.513.866 1 1.294 1.47 1.294.269 0 .504-.092.722-.277.21-.185.32-.395.32-.639 0-.218-.084-.546-.244-.966-.16-.42-.227-.957-.202-1.629l.05-2.15c.034-1.47-.268-2.445-.915-2.932-.655-.487-1.68-.73-3.074-.73-1.386 0-2.402.268-3.04.806-.647.537-.967 1.1-.967 1.688 0 .252.093.462.294.622.194.16.412.235.656.235.26 0 .462-.067.604-.21.135-.135.294-.37.48-.706.318-.58.999-.873 2.04-.873.546 0 .958.126 1.227.37.268.243.403.713.411 1.402a35.23 35.23 0 0 1-2.326.554c-.958.202-1.655.37-2.075.521-.429.151-.823.42-1.185.807-.36.386-.537.881-.537 1.503 0 .73.26 1.344.798 1.848.529.504 1.293.756 2.285.756 1.041 0 2.116-.428 3.208-1.293Zm-.151-3.317c0 .756-.05 1.327-.151 1.705-.101.386-.37.714-.807.99a2.554 2.554 0 0 1-1.402.412c-.48 0-.849-.126-1.11-.377a1.17 1.17 0 0 1-.385-.874c0-.386.16-.68.487-.882.327-.202.882-.378 1.671-.538.79-.15 1.353-.302 1.697-.436Zm4.677 2.713c0 .563.025.949.084 1.15.05.202.185.378.386.53a1.1 1.1 0 0 0 .681.218c.26 0 .495-.076.697-.244.201-.168.319-.352.369-.554.051-.201.076-.596.076-1.184v-1.328c0-1.579.134-2.654.403-3.208.269-.554.672-.832 1.227-.832.218 0 .487.05.806.152.319.1.546.142.672.142.218 0 .42-.084.613-.268a.943.943 0 0 0 .286-.698c0-.403-.244-.714-.714-.949-.471-.235-.933-.353-1.369-.353-.84 0-1.504.48-1.974 1.428-.017-.949-.387-1.428-1.109-1.428-.756 0-1.134.521-1.134 1.546v5.88Zm13.631-2.201c.773 0 1.277-.118 1.52-.361.244-.244.37-.58.37-1 0-.949-.37-1.83-1.101-2.646-.739-.806-1.78-1.218-3.124-1.218-1.411 0-2.52.437-3.31 1.294-.789.857-1.184 1.982-1.184 3.368 0 1.378.395 2.503 1.184 3.368.79.866 1.957 1.294 3.495 1.294 1.201 0 2.158-.277 2.864-.848.705-.572 1.058-1.11 1.058-1.63a.618.618 0 0 0-.227-.479.804.804 0 0 0-.529-.193.963.963 0 0 0-.445.1c-.134.068-.336.245-.605.522-.68.672-1.402 1.008-2.167 1.008-.621 0-1.159-.21-1.604-.647-.445-.437-.681-1.075-.697-1.932h4.502Zm-4.502-1.302c.176-1.562.873-2.343 2.091-2.343.571 0 1.059.201 1.453.604.387.403.597.983.63 1.739h-4.174Z"/><path fill="#026C97" fill-rule="evenodd" d="M4.308 0H24.57a2.484 2.484 0 0 1 2.47 2.47v12.787h-1.075V2.474a1.409 1.409 0 0 0-1.4-1.399H4.286a1.408 1.408 0 0 0-1.447 1.4v12.782H1.763V2.47A2.484 2.484 0 0 1 4.308 0Z" clip-rule="evenodd"/><path fill="#026C97" d="M18.622 15.052a3.397 3.397 0 0 0 3.515-3.279 3.409 3.409 0 0 0-3.515-3.225 3.408 3.408 0 0 0-3.516 3.279 3.408 3.408 0 0 0 3.516 3.225Zm8.913-1.483a15.256 15.256 0 0 1-10.59 2.795c-1.076 0-2.226-.118-2.226 1.602v.193c1.656 1.076 3.225 1.076 4.408-.774.763-1.172 1.796-.774 1.247.753a4.44 4.44 0 0 1-4.3 2.946 6.772 6.772 0 0 1-1.29-.14v4.763a2.87 2.87 0 0 0 3.042 3.107c3.408 0 5.204-3.14 5.204-6.45a12.666 12.666 0 0 0-.58-3.689 14.568 14.568 0 0 0 6.052-4.085c.527-.774-.096-1.634-.967-1.021Z"/><path fill="#D8711C" fill-rule="evenodd" d="M13.977 11.73a3.408 3.408 0 0 1-3.537 3.322 3.397 3.397 0 0 1-3.516-3.279 3.408 3.408 0 0 1 3.516-3.225 3.408 3.408 0 0 1 3.537 3.182Zm-2.462 4.634A15.568 15.568 0 0 1 1.15 13.568c-.87-.612-1.473.248-.903 1.011a14.44 14.44 0 0 0 6.043 4.086c-2.032 6.924 1.688 10.15 4.623 10.139a2.86 2.86 0 0 0 3.064-3.097v-5.494a9.53 9.53 0 0 0 2.097.376 4.354 4.354 0 0 0 4.354-2.645c.591-1.419-.42-1.827-1.204-.741-1.516 2.085-3.462 1.655-5.473-.27-.548-.505-.85-.644-2.258-.57h.022Z" clip-rule="evenodd"/></svg>