<svg width="18" height="16" viewBox="0 0 18 16" fill="none" xmlns="http://www.w3.org/2000/svg">
<path d="M8.9994 0C9.37966 0.000264755 9.75423 0.0934187 10.0913 0.271551C10.4284 0.449683 10.718 0.707532 10.9356 1.0232L11.021 1.1544L17.684 12.4136C17.8837 12.764 17.9923 13.16 17.9996 13.5644C18.0069 13.9688 17.9128 14.3685 17.726 14.7261C17.5392 15.0837 17.2658 15.3875 16.9314 15.609C16.5971 15.8305 16.2127 15.9626 15.8142 15.9928L15.6561 16H2.33477C1.93582 15.9952 1.54456 15.8882 1.19749 15.689C0.850416 15.4898 0.558821 15.2048 0.349891 14.8608C0.140961 14.5167 0.021499 14.1247 0.00264125 13.7212C-0.0162165 13.3178 0.0661444 12.9161 0.242046 12.5536L0.321866 12.4024L6.98018 1.1504C7.19077 0.799212 7.4872 0.508871 7.84088 0.307372C8.19456 0.105873 8.59355 1.33141e-05 8.9994 0ZM9.05472 11.2L8.95435 11.2056C8.76227 11.2287 8.58524 11.3224 8.45679 11.4688C8.32834 11.6152 8.2574 11.8042 8.2574 12C8.2574 12.1958 8.32834 12.3848 8.45679 12.5312C8.58524 12.6776 8.76227 12.7713 8.95435 12.7944L9.04682 12.8L9.14719 12.7944C9.33927 12.7713 9.5163 12.6776 9.64475 12.5312C9.7732 12.3848 9.84415 12.1958 9.84415 12C9.84415 11.8042 9.7732 11.6152 9.64475 11.4688C9.5163 11.3224 9.33927 11.2287 9.14719 11.2056L9.05472 11.2ZM9.04682 4.8C8.85325 4.80003 8.66642 4.87196 8.52176 5.00217C8.37711 5.13238 8.2847 5.3118 8.26205 5.5064L8.25652 5.6V8.8L8.26205 8.8936C8.2849 9.08804 8.3774 9.26724 8.52203 9.39727C8.66666 9.52729 8.85338 9.59911 9.04682 9.59911C9.24026 9.59911 9.42698 9.52729 9.57161 9.39727C9.71624 9.26724 9.80874 9.08804 9.83159 8.8936L9.83712 8.8V5.6L9.83159 5.5064C9.80894 5.3118 9.71653 5.13238 9.57188 5.00217C9.42722 4.87196 9.24039 4.80003 9.04682 4.8Z" fill="#FB923C"/>
</svg>
